<?xml version="1.0" encoding="iso-8859-1"?>
<!-- Generator: Adobe Illustrator 19.0.0, SVG Export Plug-In . SVG Version: 6.00 Build 0)  -->
<svg version="1.1" id="Layer_1" xmlns="http://www.w3.org/2000/svg" xmlns:xlink="http://www.w3.org/1999/xlink" x="0px" y="0px"
	 viewBox="0 0 512.002 512.002" style="enable-background:new 0 0 512.002 512.002;" xml:space="preserve">
<g>
	<g>
		<circle cx="255.975" cy="191.495" r="40.221"/>
	</g>
</g>
<g>
	<g>
		<path d="M201.97,448.787v18.563h-0.001c0,13.453,10.907,24.36,24.36,24.36s24.36-10.907,24.36-24.36v-18.563H201.97z"/>
	</g>
</g>
<g>
	<g>
		<path d="M261.206,448.787v18.563h-0.001c0,13.453,10.907,24.36,24.36,24.36c13.453,0,24.36-10.907,24.36-24.36v-18.563H261.206z"
			/>
	</g>
</g>
<g>
	<g>
		<circle cx="255.941" cy="42.071" r="42.071"/>
	</g>
</g>
<g>
	<g>
		<polygon points="279.693,411.344 232.346,411.344 182.938,433.076 329.099,433.076 		"/>
	</g>
</g>
<g>
	<g>
		<path d="M437.051,214.921h-10.278c0-19.225,0-15.072,0-34.419c0-3.558-2.885-6.445-6.445-6.445h-17.606
			c-3.559,0-6.444,2.886-6.444,6.445c0,19.347,0,15.19,0,34.419h-22.505c0.603-6.339-2.185-12.219-6.888-15.858h13.682l0.23-21.573
			l-16.737-13.805l-42.162-55.171c-4.888-6.397-12.483-10.144-20.535-10.133l-90.875,0.134c-8.022,0.012-15.581,3.755-20.454,10.127
			l-42.639,55.761l-15.967,15.966c0,0.046,0.007,0.089,0.007,0.135v18.561h13.738c-4.703,3.638-7.491,9.519-6.888,15.858h-22.561
			c0-19.225,0-15.072,0-34.419c0-3.559-2.885-6.445-6.445-6.445H91.674c-3.559,0-6.444,2.886-6.444,6.445c0,19.347,0,15.19,0,34.419
			H74.952c-6.737,0-12.198,5.461-12.198,12.198s5.461,12.198,12.198,12.198H85.23c0,19.225,0,15.072,0,34.419
			c0,3.559,2.885,6.444,6.444,6.444h17.606c3.56,0,6.445-2.885,6.445-6.444c0-19.348,0-15.191,0-34.419h25.131
			c0.771,7.298,6.23,58.908,7.038,66.54c1.62,15.313,20.913,21.792,31.297,9.901c11.94-13.665,10.919-12.497,25.172-28.807v68.531
			c-6.774,2.752-57.571,23.391-65.131,26.462c-7.603,3.089-13.018,9.952-14.257,18.064l-12.996,85.19
			c-1.94,12.717,6.798,24.595,19.511,26.535s24.594-6.794,26.535-19.511l11.001-72.107c11.271-4.579,48.557-19.728,60.252-24.48
			h53.486c25.538,10.376,58.112,23.61,60.252,24.48l11.001,72.107c1.944,12.743,13.878,21.442,26.535,19.511
			c12.712-1.94,21.45-13.817,19.511-26.535l-12.996-85.19c-1.237-8.113-6.653-14.975-14.257-18.064
			c-10.445-4.244-58.645-23.827-65.648-26.672v-0.001v-68.933c17.096,19.565,10.105,11.565,25.708,29.421
			c10.171,11.65,29.643,5.742,31.298-9.901c0.807-7.633,6.265-59.24,7.038-66.54h25.075c0,19.225,0,15.072,0,34.419
			c0,3.559,2.885,6.445,6.444,6.445h17.606c3.559,0,6.445-2.885,6.445-6.445c0-19.348,0-15.191,0-34.419h10.278
			c6.735-0.001,12.197-5.462,12.197-12.199S443.787,214.921,437.051,214.921z M179.202,261.306
			c-0.97-9.172-0.793-7.492-2.325-21.989h21.54C190.611,248.248,187.114,252.252,179.202,261.306z M332.856,261.306
			c-7.98-9.132-11.316-12.95-19.214-21.989h21.54C333.376,256.391,333.82,252.186,332.856,261.306z M337.762,214.921h-31.016
			c-9.15,19.755-28.897,32.511-50.773,32.511c-21.62,0-41.515-12.523-50.773-32.511h-30.903c-0.386-3.646-0.436-11.177-8.017-16.416
			l6.636-6.635c0.589-0.587,2.991-3.069,3.496-3.729l25.549-33.443v22.295c6.408-23.828,28.189-41.424,54.013-41.424
			c25.182,0,46.524,16.731,53.51,39.658v-21.263l26.11,34.177c0.868,1.136,1.863,2.169,2.966,3.079l8.129,6.705
			C338.38,202.96,338.198,210.797,337.762,214.921z"/>
	</g>
</g>
<g>
</g>
<g>
</g>
<g>
</g>
<g>
</g>
<g>
</g>
<g>
</g>
<g>
</g>
<g>
</g>
<g>
</g>
<g>
</g>
<g>
</g>
<g>
</g>
<g>
</g>
<g>
</g>
<g>
</g>
</svg>
