<?xml version="1.0" encoding="iso-8859-1"?>
<!-- Generator: Adobe Illustrator 19.0.0, SVG Export Plug-In . SVG Version: 6.00 Build 0)  -->
<svg version="1.1" id="Layer_1" xmlns="http://www.w3.org/2000/svg" xmlns:xlink="http://www.w3.org/1999/xlink" x="0px" y="0px"
	 viewBox="0 0 301.146 301.146" style="enable-background:new 0 0 301.146 301.146;" xml:space="preserve">
<g id="XMLID_1155_">
	<g>
		<g>
			<circle cx="154.109" cy="24.978" r="24.978"/>
			<path d="M237.477,181.552c-3.895,0-7.702,0.379-11.39,1.093l-11.898-35.354l8.181,4.091c3.918,1.959,8.679,0.37,10.637-3.546
				c1.958-3.917,0.371-8.679-3.546-10.638l-13.956-6.978c0.071,1.929-0.102,3.899-0.552,5.87
				c-1.883,8.264-8.068,14.426-15.655,16.675l3.077,9.142c-15.594,0.46-19.256,0.568-34.821,1.027
				c0.828-6.139-2.627-12.196-8.58-14.482c-14.398-5.527-10.262-4.245-19.821-6.423c-6.38-1.454-10.862-6.826-11.514-12.989
				l-4.581-43.996l15.163,39.983c1.344,3.544,4.372,6.179,8.067,7.021l44.083,10.046c6.09,1.389,12.159-2.424,13.548-8.519
				c1.389-6.094-2.425-12.16-8.519-13.548l-38.167-8.698l-13.012-34.311l13.649,19.071l3.866-10.126
				c3.324-8.706-1.039-18.458-9.744-21.782l-28.111-10.734c-8.706-3.324-18.458,1.039-21.782,9.744
				c-22.132,57.964-21.297,55.181-21.975,59.079c-1.29,7.42,0.387,14.9,4.369,20.97c0.448,1.515,1.154,2.944,2.093,4.219h-5.013
				c-5.228,0-9.515,4.258-9.515,9.515c0,5.255,4.26,9.515,9.515,9.515h15.713l1.612,3.887l-11.115,16.258
				c-7.381-3.266-15.538-5.083-24.114-5.083c-32.972,0-59.798,26.825-59.798,59.798c0,32.973,26.826,59.798,59.798,59.798
				c29.047,0,53.32-20.82,58.688-48.319c3.719,1.906,6.535,0.322,9.406-0.826c4.749-1.899,18.181-7.272,28.87-11.548
				c4.066-1.626,6.043-6.241,4.417-10.307c-0.656-1.641-1.803-2.933-3.2-3.794l46.797-45.806l2.412,7.166
				c-19.759,9.771-33.381,30.141-33.381,53.636c0,32.972,26.826,59.798,59.798,59.798c32.973,0,59.799-26.826,59.799-59.798
				C297.275,208.376,270.449,181.552,237.477,181.552z M92.329,208.083c7.441,6.42,12.71,15.284,14.55,25.337H75.007L92.329,208.083
				z M63.67,285.29c-24.229,0-43.94-19.712-43.94-43.941c0-24.229,19.711-43.94,43.94-43.94c5.249,0,10.284,0.928,14.955,2.624
				c-27.042,39.552-25.32,36.977-25.69,37.697c-2.682,5.198,1.059,11.548,7.057,11.548h46.889
				C103.135,269.733,85.191,285.29,63.67,285.29z M121.237,223.815c-1.525,5.112,0.114,10.404,3.767,13.811l-1.973,0.79
				c-3.179,1.271-5.071,4.37-4.973,7.604c-6.85-6.061-10.06-15.825-7.23-25.31l3.372-11.304
				c-3.486-5.496-7.844-10.385-12.877-14.476l4.83-7.064c0.274,0.661,7.301,17.606,8.418,20.299l5.746-19.262l-3.568-8.604
				c7.35-0.217,5.926-0.175,17.627-0.52L121.237,223.815z M168.813,197.349l-8.439,28.29c-1.762-0.635-3.752-0.66-5.628,0.09
				l-6.513,2.605l14.736-49.4c9.96-0.294,15.995-0.472,25.423-0.75L168.813,197.349z M237.477,285.29
				c-24.229,0-43.94-19.712-43.94-43.941c0-16.506,9.153-30.908,22.645-38.417l13.779,40.946c1.397,4.152,5.896,6.382,10.044,4.986
				c4.15-1.397,6.382-5.893,4.986-10.043l-13.783-40.957c2.049-0.294,4.14-0.455,6.269-0.455c24.229,0,43.94,19.712,43.94,43.94
				C281.417,265.578,261.705,285.29,237.477,285.29z"/>
		</g>
	</g>
</g>
<g>
</g>
<g>
</g>
<g>
</g>
<g>
</g>
<g>
</g>
<g>
</g>
<g>
</g>
<g>
</g>
<g>
</g>
<g>
</g>
<g>
</g>
<g>
</g>
<g>
</g>
<g>
</g>
<g>
</g>
</svg>
